<?xml version="1.0" encoding="UTF-8"?>
<svg version="1.1" xmlns="http://www.w3.org/2000/svg" width="210" height="210">
<path d="M0 0 C0.8287413 -0.00315216 1.6574826 -0.00630432 2.51133728 -0.009552 C3.82552391 -0.00651566 3.82552391 -0.00651566 5.16625977 -0.00341797 C6.09503433 -0.00437469 7.0238089 -0.00533142 7.98072815 -0.00631714 C9.94320748 -0.00699536 11.90568909 -0.0051661 13.86816406 -0.00097656 C16.8171924 0.00432181 19.76606459 -0.00090525 22.71508789 -0.00732422 C58.11539091 -0.02299302 58.11539091 -0.02299302 68.42016602 5.12939453 C68.42016602 5.78939453 68.42016602 6.44939453 68.42016602 7.12939453 C69.18844727 7.35755859 69.95672852 7.58572266 70.74829102 7.82080078 C74.05162882 9.4386636 74.67423867 10.75934088 76.17016602 14.06689453 C76.57750977 14.94216797 76.98485352 15.81744141 77.40454102 16.71923828 C80.28698581 23.5595015 79.82608558 29.12839789 77.33813477 35.98486328 C75.2987169 40.74929054 72.79306164 44.31824735 68.42016602 47.12939453 C69.28641602 47.64501953 70.15266602 48.16064453 71.04516602 48.69189453 C76.9429715 52.64705792 80.51194263 57.28174335 82.42016602 64.12939453 C83.9045674 72.46085866 83.84119484 78.78631232 79.42016602 86.12939453 C78.76016602 86.12939453 78.10016602 86.12939453 77.42016602 86.12939453 C76.92516602 87.61439453 76.92516602 87.61439453 76.42016602 89.12939453 C65.73477203 98.8988976 52.03794334 99.58524683 38.24829102 99.42236328 C36.83055068 99.41675167 35.41280444 99.412489 33.99505615 99.40950012 C30.30594144 99.39817416 26.61719443 99.3688166 22.92822266 99.33538818 C19.14694184 99.30441921 15.36560024 99.29093813 11.58422852 99.27587891 C4.19604204 99.24393174 -3.191844 99.19288882 -10.57983398 99.12939453 C-11.9184768 95.1134661 -11.7105117 91.2546517 -11.69335938 87.06811523 C-11.6935054 86.14108795 -11.69365143 85.21406067 -11.69380188 84.25894165 C-11.69310452 81.19099599 -11.68532035 78.12311085 -11.67749023 75.05517578 C-11.67562543 72.92954034 -11.67420182 70.80390446 -11.67320251 68.67826843 C-11.66938228 63.0805035 -11.65955617 57.48276446 -11.64849854 51.88500977 C-11.63827383 46.17415721 -11.63370262 40.46330047 -11.62866211 34.75244141 C-11.61793349 23.54474773 -11.60086296 12.33707328 -11.57983398 1.12939453 C-7.70054393 0.53561268 -3.92653542 0.00435177 0 0 Z M19.42016602 23.12939453 C19.42016602 28.07939453 19.42016602 33.02939453 19.42016602 38.12939453 C20.41016602 38.45939453 21.40016602 38.78939453 22.42016602 39.12939453 C22.42016602 38.46939453 22.42016602 37.80939453 22.42016602 37.12939453 C23.08016602 37.45939453 23.74016602 37.78939453 24.42016602 38.12939453 C25.79564758 38.21248091 27.17502398 38.23675469 28.55297852 38.22705078 C29.35864258 38.22382812 30.16430664 38.22060547 30.99438477 38.21728516 C32.25702148 38.2047168 32.25702148 38.2047168 33.54516602 38.19189453 C34.8194043 38.18512695 34.8194043 38.18512695 36.11938477 38.17822266 C38.2196751 38.16642327 40.31992932 38.14848759 42.42016602 38.12939453 C42.42016602 37.46939453 42.42016602 36.80939453 42.42016602 36.12939453 C44.07016602 35.79939453 45.72016602 35.46939453 47.42016602 35.12939453 C48.36624409 32.37977942 48.36624409 32.37977942 48.42016602 29.12939453 C45.73096132 25.67184564 43.70608072 23.8754356 39.42016602 23.12939453 C37.83323963 23.05072494 36.24338353 23.02155339 34.65454102 23.03173828 C33.76508789 23.03496094 32.87563477 23.03818359 31.95922852 23.04150391 C31.03883789 23.04988281 30.11844727 23.05826172 29.17016602 23.06689453 C27.76637695 23.07366211 27.76637695 23.07366211 26.33422852 23.08056641 C24.02951354 23.09232516 21.72483155 23.11025985 19.42016602 23.12939453 Z M20.42016602 60.12939453 C20.19712161 61.87758044 19.99230152 63.62809776 19.79516602 65.37939453 C19.67915039 66.35392578 19.56313477 67.32845703 19.44360352 68.33251953 C19.4187911 71.29346816 19.77966219 72.69653851 21.42016602 75.12939453 C25.14733293 76.99297799 29.63127291 76.31414745 33.73266602 76.31689453 C35.15869141 76.33526367 35.15869141 76.33526367 36.61352539 76.35400391 C44.61496697 76.40606486 44.61496697 76.40606486 51.29516602 72.37939453 C52.85581154 69.25810349 52.33573616 67.43953273 51.42016602 64.12939453 C48.94846734 60.42184652 47.6767318 60.18107531 43.42016602 59.12939453 C35.7364285 58.63555955 28.02078581 58.88847701 20.42016602 60.12939453 Z " fill="#070707" transform="translate(18.579833984375,55.87060546875)"/>
<path d="M0 0 C2.6096178 2.47322662 5.06335942 4.95954039 7 8 C7 11 7 11 5.3203125 12.82421875 C4.59585938 13.43910156 3.87140625 14.05398437 3.125 14.6875 C2.40570313 15.31011719 1.68640625 15.93273437 0.9453125 16.57421875 C-1 18 -1 18 -3 18 C-3.20625 18.556875 -3.4125 19.11375 -3.625 19.6875 C-5.62143247 23.04513643 -7.78478875 24.74935212 -11 27 C-13.0625 27.1875 -13.0625 27.1875 -15 26 C-16.0828125 24.6078125 -16.0828125 24.6078125 -17.1875 23.1875 C-20.94596089 18.44658429 -25.793179 16.4528364 -31.7109375 15.6171875 C-39.70323399 15.28137672 -45.77711514 17.26755414 -51.875 22.4375 C-57.4644195 29.17768234 -58.7841209 35.38867226 -58 44 C-56.75066694 49.57606739 -54.75322567 54.63814314 -51 59 C-44.27455415 63.24765001 -37.70274315 65.00933507 -29.79296875 63.609375 C-23.87312046 61.99204342 -20.350969 58.9443454 -16.140625 54.546875 C-14 53 -14 53 -11.578125 52.99609375 C-8.31710491 54.26591521 -6.15384732 56.03511136 -3.5 58.3125 C-2.5821875 59.09238281 -1.664375 59.87226562 -0.71875 60.67578125 C0.1784375 61.44277344 1.075625 62.20976562 2 63 C3.66153306 64.33972514 5.32655239 65.67518731 7 67 C6.67467578 72.36784962 3.74264898 75.45353826 0 79 C-10.60597481 87.47780224 -21.17960238 91.40363766 -34.75 91.3125 C-35.63034912 91.30686035 -36.51069824 91.3012207 -37.41772461 91.29541016 C-49.14654637 91.07767079 -58.0000366 88.08480644 -68 82 C-69.051875 81.4225 -70.10375 80.845 -71.1875 80.25 C-82.30860231 71.35311815 -87.80524917 58.76398001 -90 45 C-91.4002561 32.09078966 -86.82217421 19.13452709 -79.34765625 8.69140625 C-77.75 6.75 -77.75 6.75 -75 4 C-74.34 4 -73.68 4 -73 4 C-72.8040625 3.42378906 -72.608125 2.84757812 -72.40625 2.25390625 C-70.43629587 -0.90349246 -67.6806957 -2.31634246 -64.5 -4.0625 C-63.55713135 -4.58855835 -63.55713135 -4.58855835 -62.59521484 -5.12524414 C-42.58688042 -15.97605512 -17.97484039 -13.97417059 0 0 Z " fill="#3BB359" transform="translate(195,66)"/>
<path d="M0 0 C4.63617621 0.49553333 7.00276821 2.3113643 10.5 5.3125 C11.4178125 6.09238281 12.335625 6.87226562 13.28125 7.67578125 C14.1784375 8.44277344 15.075625 9.20976562 16 10 C17.66153306 11.33972514 19.32655239 12.67518731 21 14 C20.68327951 19.22588808 17.69889181 22.5609835 14 26 C11.80078125 27.20703125 11.80078125 27.20703125 10 28 C10.97472708 22.73647377 11.98820986 18.51768521 15 14 C15 13.34 15 12.68 15 12 C14.34 12 13.68 12 13 12 C13 11.01 13 10.02 13 9 C10.03 8.67 7.06 8.34 4 8 C3.67 6.35 3.34 4.7 3 3 C2.01 3 1.02 3 0 3 C-0.33 3.99 -0.66 4.98 -1 6 C-2.65 6.33 -4.3 6.66 -6 7 C-4.02 4.69 -2.04 2.38 0 0 Z " fill="#4EB369" transform="translate(181,119)"/>
<path d="M0 0 C0.5775 0.7425 1.155 1.485 1.75 2.25 C2.4925 3.1575 3.235 4.065 4 5 C4.8353125 6.0209375 4.8353125 6.0209375 5.6875 7.0625 C10.6273181 11.20126652 16.45488335 13.67431971 22.94921875 13.3359375 C26.79483511 12.70598892 30.37008439 11.3818022 34 10 C34.99 9.67 35.98 9.34 37 9 C36.34 10.98 35.68 12.96 35 15 C29.27959989 15.8320582 23.77759884 16.12036664 18 16 C17.67 16.66 17.34 17.32 17 18 C16.67 17.34 16.34 16.68 16 16 C13.67843403 15.59270772 11.3431213 15.25561323 9 15 C9 14.01 9 13.02 9 12 C6.525 11.01 6.525 11.01 4 10 C4 9.34 4 8.68 4 8 C1.525 7.01 1.525 7.01 -1 6 C-0.67 4.02 -0.34 2.04 0 0 Z " fill="#58B46D" transform="translate(138,117)"/>
<path d="M0 0 C4.66054723 2.8180053 7.79452428 5.56890121 11 10 C11 13 11 13 9.35546875 14.859375 C8.28232422 15.79523438 8.28232422 15.79523438 7.1875 16.75 C6.47980469 17.38421875 5.77210938 18.0184375 5.04296875 18.671875 C4.03169922 19.32929687 4.03169922 19.32929687 3 20 C2.01 19.67 1.02 19.34 0 19 C1.32 18.34 2.64 17.68 4 17 C3.34 14.69 2.68 12.38 2 10 C3.32 9.67 4.64 9.34 6 9 C3.78065836 5.67098753 2.65316671 5.24976756 -1 4 C-0.67 2.68 -0.34 1.36 0 0 Z " fill="#5EB776" transform="translate(191,64)"/>
<path d="M0 0 C6.93 0.495 6.93 0.495 14 1 C14 1.33 14 1.66 14 2 C13.31035156 2.02578125 12.62070313 2.0515625 11.91015625 2.078125 C3.76716208 2.56960887 -2.57154522 4.0932666 -8.875 9.4375 C-10.88163754 11.8572688 -12.50186481 14.24027728 -14 17 C-14.68707555 14.50935112 -15 12.62113708 -15 10 C-14.34 10 -13.68 10 -13 10 C-12.62875 9.0409375 -12.62875 9.0409375 -12.25 8.0625 C-11 6 -11 6 -8.875 5.25 C-8.25625 5.1675 -7.6375 5.085 -7 5 C-7 4.34 -7 3.68 -7 3 C-6.34 3 -5.68 3 -5 3 C-4.67 2.34 -4.34 1.68 -4 1 C-2.68 1.33 -1.36 1.66 0 2 C0 1.34 0 0.68 0 0 Z " fill="#6FC186" transform="translate(152,79)"/>
<path d="M0 0 C0 0.33 0 0.66 0 1 C-0.81090088 0.8928064 -0.81090088 0.8928064 -1.63818359 0.78344727 C-9.62996088 -0.15315304 -17.59305343 -0.1131175 -25.625 -0.0625 C-27.02473797 -0.05747197 -28.4244777 -0.05291138 -29.82421875 -0.04882812 C-33.21619169 -0.03713167 -36.60807233 -0.02074086 -40 0 C-29.18773837 -7.20817442 -11.47195159 -4.38471227 0 0 Z " fill="#6CB980" transform="translate(182,58)"/>
<path d="M0 0 C0.51304687 0.24105469 1.02609375 0.48210938 1.5546875 0.73046875 C-1.11844174 2.92625348 -3.11649368 3.92696076 -6.4453125 4.73046875 C-6.7753125 5.39046875 -7.1053125 6.05046875 -7.4453125 6.73046875 C-8.4353125 6.73046875 -9.4253125 6.73046875 -10.4453125 6.73046875 C-10.1153125 7.72046875 -9.7853125 8.71046875 -9.4453125 9.73046875 C-11.7553125 10.06046875 -14.0653125 10.39046875 -16.4453125 10.73046875 C-16.4453125 11.39046875 -16.4453125 12.05046875 -16.4453125 12.73046875 C-17.7653125 12.40046875 -19.0853125 12.07046875 -20.4453125 11.73046875 C-19.7853125 11.73046875 -19.1253125 11.73046875 -18.4453125 11.73046875 C-18.25710937 11.15941406 -18.06890625 10.58835937 -17.875 10 C-15.81667117 6.73254359 -12.86029948 5.25057861 -9.5703125 3.41796875 C-8.94511719 3.04607422 -8.31992188 2.67417969 -7.67578125 2.29101562 C-3.04799691 -0.33596132 -3.04799691 -0.33596132 0 0 Z " fill="#65B87B" transform="translate(140.4453125,58.26953125)"/>
<path d="M0 0 C1.32 0.33 2.64 0.66 4 1 C-5.46713367 7.69626528 -14.51086211 10.96804677 -26 9 C-26 8.67 -26 8.34 -26 8 C-21.38 7.67 -16.76 7.34 -12 7 C-11.67 6.01 -11.34 5.02 -11 4 C-8.36 4 -5.72 4 -3 4 C-3 3.34 -3 2.68 -3 2 C-2.01 2 -1.02 2 0 2 C0 1.34 0 0.68 0 0 Z " fill="#71BF89" transform="translate(187,147)"/>
<path d="M0 0 C1.32 0 2.64 0 4 0 C2.40279281 4.3124594 -0.31633819 6.42143673 -4 9 C-6.66117486 8.81505348 -7.6809202 8.3501481 -9.484375 6.37109375 C-9.90203125 5.73300781 -10.3196875 5.09492187 -10.75 4.4375 C-11.17796875 3.79683594 -11.6059375 3.15617187 -12.046875 2.49609375 C-12.51867187 1.75552734 -12.51867187 1.75552734 -13 1 C-12.443125 1.28875 -11.88625 1.5775 -11.3125 1.875 C-8.91505355 3.0413253 -6.48403061 4.0339881 -4 5 C-3.34 4.01 -2.68 3.02 -2 2 C-1.34 2 -0.68 2 0 2 C0 1.34 0 0.68 0 0 Z " fill="#72BC8A" transform="translate(188,84)"/>
<path d="M0 0 C0.33 0.66 0.66 1.32 1 2 C1.66 2.33 2.32 2.66 3 3 C0.56134348 6.30960527 -1.25979502 8.31847927 -5 10 C-4.745504 8.51793505 -4.47088238 7.03931385 -4.1875 5.5625 C-4.03667969 4.73878906 -3.88585937 3.91507813 -3.73046875 3.06640625 C-3.48941406 2.38449219 -3.24835938 1.70257813 -3 1 C-2.01 0.67 -1.02 0.34 0 0 Z " fill="#67BF83" transform="translate(196,137)"/>
<path d="M0 0 C0.5775 0.7425 1.155 1.485 1.75 2.25 C3.72748501 4.66692613 5.75927459 6.83155606 8 9 C9 10 10 11 11 12 C6.25 11.125 6.25 11.125 4 10 C4 9.34 4 8.68 4 8 C1.525 7.01 1.525 7.01 -1 6 C-0.67 4.02 -0.34 2.04 0 0 Z " fill="#77BE8D" transform="translate(138,117)"/>
<path d="M0 0 C4.31392226 0.4793247 6.16569547 1.7457985 9 5 C4.545 4.01 4.545 4.01 0 3 C-0.33 3.99 -0.66 4.98 -1 6 C-2.65 6.33 -4.3 6.66 -6 7 C-4.02 4.69 -2.04 2.38 0 0 Z " fill="#6CBB83" transform="translate(181,119)"/>
<path d="M0 0 C0.33 1.32 0.66 2.64 1 4 C-0.8125 6.25 -0.8125 6.25 -3 8 C-3.66 8 -4.32 8 -5 8 C-5.33 8.99 -5.66 9.98 -6 11 C-6.33 10.34 -6.66 9.68 -7 9 C-4.69 6.03 -2.38 3.06 0 0 Z " fill="#76C48C" transform="translate(119,71)"/>
<path d="M0 0 C2.64 0.66 5.28 1.32 8 2 C8.33 1.34 8.66 0.68 9 0 C9.33 1.98 9.66 3.96 10 6 C5.56909529 4.79157144 3.01887244 3.48331435 0 0 Z " fill="#5CB775" transform="translate(126,146)"/>
<path d="M0 0 C3 1.75 3 1.75 6 4 C6 5.32 6 6.64 6 8 C5.21625 7.525625 4.4325 7.05125 3.625 6.5625 C2.11051322 5.66101977 0.5764103 4.78820515 -1 4 C-0.67 2.68 -0.34 1.36 0 0 Z " fill="#70C18A" transform="translate(191,64)"/>
<path d="M0 0 C0.66 0.99 1.32 1.98 2 3 C1.34 3 0.68 3 0 3 C-0.144375 4.093125 -0.28875 5.18625 -0.4375 6.3125 C-1 10 -1 10 -2 13 C-2.66 13 -3.32 13 -4 13 C-3.40895235 8.15340923 -2.02055843 4.39251833 0 0 Z " fill="#6FB380" transform="translate(111,82)"/>
<path d="M0 0 C1.65 0.99 3.3 1.98 5 3 C4.625 5.4375 4.625 5.4375 4 8 C3.01 8.495 3.01 8.495 2 9 C1.34 6.03 0.68 3.06 0 0 Z " fill="#6DB884" transform="translate(197,130)"/>
<path d="M0 0 C6.93 0.495 6.93 0.495 14 1 C14 1.33 14 1.66 14 2 C9.38 2.33 4.76 2.66 0 3 C0 2.01 0 1.02 0 0 Z " fill="#7FC395" transform="translate(152,79)"/>
<path d="M0 0 C-1 3 -1 3 -3 4 C-3.72159424 5.64363134 -4.39351421 7.31050386 -5 9 C-5.66 9 -6.32 9 -7 9 C-4.4 0 -4.4 0 0 0 Z " fill="#41AC5F" transform="translate(118,78)"/>
<path d="M0 0 C2.375 0.25 2.375 0.25 5 1 C6.3125 3.0625 6.3125 3.0625 7 5 C6.01 5.495 6.01 5.495 5 6 C3.31237149 4.3545622 1.6459651 2.68711423 0 1 C0 0.67 0 0.34 0 0 Z " fill="#60B578" transform="translate(118,139)"/>
<path d="M0 0 C1.32 0 2.64 0 4 0 C4 1.65 4 3.3 4 5 C4.99 5.33 5.98 5.66 7 6 C6.34 6.66 5.68 7.32 5 8 C4.16382818 6.8562364 3.33113541 5.70992861 2.5 4.5625 C2.0359375 3.92441406 1.571875 3.28632813 1.09375 2.62890625 C0 1 0 1 0 0 Z " fill="#74C188" transform="translate(112,131)"/>
<path d="M0 0 C1.65 0.33 3.3 0.66 5 1 C5 1.66 5 2.32 5 3 C1.535 4.485 1.535 4.485 -2 6 C-2 4.68 -2 3.36 -2 2 C-1.34 2 -0.68 2 0 2 C0 1.34 0 0.68 0 0 Z " fill="#65B678" transform="translate(147,80)"/>
<path d="M0 0 C0.99 0.33 1.98 0.66 3 1 C3.33 4.3 3.66 7.6 4 11 C1.6870518 8.6870518 1.50419025 7.52095125 0.875 4.375 C0.70742187 3.55773437 0.53984375 2.74046875 0.3671875 1.8984375 C0.24601562 1.27195312 0.12484375 0.64546875 0 0 Z " fill="#82C697" transform="translate(106,115)"/>
<path d="M0 0 C-0.66 1.65 -1.32 3.3 -2 5 C-3.65 5 -5.3 5 -7 5 C-7 4.34 -7 3.68 -7 3 C-2.61538462 0 -2.61538462 0 0 0 Z " fill="#84C893" transform="translate(175,126)"/>
</svg>
